<?xml version="1.0" standalone="no"?>
<!DOCTYPE svg PUBLIC "-//W3C//DTD SVG 1.1//EN" "http://www.w3.org/Graphics/SVG/1.1/DTD/svg11.dtd" >
<svg>
<metadata>
Created by FontForge 20090622 at Fri Mar 15 06:07:49 2019
 By deploy user
</metadata>
<defs>
<font id="UnisonoLowercaseRegular" horiz-adv-x="540" >
  <font-face 
    font-family="Unisono Lowercase"
    font-weight="400"
    font-stretch="normal"
    units-per-em="1000"
    panose-1="0 0 0 0 0 0 0 0 0 0"
    ascent="800"
    descent="-200"
    x-height="445"
    cap-height="446"
    bbox="47.4257 -224 938.532 824"
    underline-thickness="0"
    underline-position="0"
    unicode-range="U+000A-U+20AC"
  />
<missing-glyph horiz-adv-x="527" 
d="M50 700h427v-700h-427v700zM78 680l185 -309l186 309h-371zM251 350l-180 300v-601zM264 329l-185 -308h370zM276 350l181 -303v605z" />
    <glyph glyph-name=".notdef" horiz-adv-x="527" 
d="M50 700h427v-700h-427v700zM78 680l185 -309l186 309h-371zM251 350l-180 300v-601zM264 329l-185 -308h370zM276 350l181 -303v605z" />
    <glyph glyph-name=".null" horiz-adv-x="1135" 
 />
    <glyph glyph-name=".null" horiz-adv-x="1135" 
 />
    <glyph glyph-name="nonmarkingreturn" horiz-adv-x="333" 
 />
    <glyph glyph-name="controlLF" unicode="&#xa;" horiz-adv-x="1135" 
 />
    <glyph glyph-name="controlCR" unicode="&#xd;" horiz-adv-x="1135" 
 />
    <glyph glyph-name="space" unicode=" " horiz-adv-x="319" 
 />
    <glyph glyph-name="exclam" unicode="!" horiz-adv-x="187" 
d="M94.5 1q-18.5 0 -31.5 13t-13 31.5t13 31.5t31.5 13t31.5 -13t13 -31.5t-13 -31.5t-31.5 -13zM137 179h-89v489h89v-489z" />
    <glyph glyph-name="quotedbl" unicode="&#x22;" horiz-adv-x="362" 
d="M137 406h-89v263h89v-263zM315 406h-89v263h89v-263z" />
    <glyph glyph-name="numbersign" unicode="#" horiz-adv-x="634" 
d="M576 414h-72l-19 -156h72l-11 -89h-72l-21 -167h-90l21 167h-173l-21 -167h-90l21 167h-73l11 89h73l19 156h-75l11 89h75l21 166h89l-20 -166h173l21 166h90l-21 -166h72zM395 258l19 156h-173l-19 -156h173z" />
    <glyph glyph-name="dollar" unicode="$" horiz-adv-x="763" 
d="M526 475q78 0 133.5 -55.5t55.5 -134t-55.5 -133.5t-133.5 -55h-100v-97h-89v97h-242v89h242v199h-100q-78 0 -133.5 55.5t-55.5 133.5t55.5 133.5t133.5 55.5h100v61h89v-61h242v-89h-242v-199h100zM237 474h100v200h-100q-42 0 -71 -29.5t-29 -70.5t29 -70.5t71 -29.5z
M526 186q42 0 71 29t29 70.5t-29 71t-71 29.5l-100 -1v-199h100z" />
    <glyph glyph-name="percent" unicode="%" horiz-adv-x="539" 
d="M390 669h100l-342 -667h-100zM380 222q46 0 78.5 -32t32.5 -77.5t-32.5 -78t-78.5 -32.5t-78.5 32.5t-32.5 78t32.5 77.5t78.5 32zM380 91q9 0 15.5 6.5t6.5 15t-6.5 14.5t-15.5 6t-15.5 -6t-6.5 -14.5t6.5 -15t15.5 -6.5zM159 449q-46 0 -78.5 32.5t-32.5 78t32.5 77.5
t78.5 32t78.5 -32t32.5 -77.5t-32.5 -78t-78.5 -32.5zM159 580q-9 0 -15.5 -6t-6.5 -14.5t6.5 -15t15.5 -6.5t15.5 6.5t6.5 15t-6.5 14.5t-15.5 6z" />
    <glyph glyph-name="ampersand" unicode="&#x26;" horiz-adv-x="596" 
d="M549 2h-112l-33 44q-59 -44 -134 -44q-92 0 -157 62t-65 150q0 53 26 99t71 75l-1 2q-45 48 -45 112q0 69 50 118t121 49t121 -49t50 -118q0 -62 -41.5 -108.5t-104.5 -55.5l107 -142q2 10 2 18q0 34 -21 64h99q11 -32 11 -64q0 -54 -27 -102zM270 580q-34 0 -58 -23
t-24 -55t24 -54.5t58 -22.5t58 22.5t24 54.5t-24 55t-58 23zM270 91q45 0 81 25l-152 201q-28 -17 -45 -44t-17 -59q0 -51 39 -87t94 -36z" />
    <glyph glyph-name="quotesingle" unicode="'" horiz-adv-x="252" 
d="M200 667q5 -23 5 -45q0 -75 -44 -133.5t-113 -79.5v96q31 18 49.5 49t18.5 68q0 22 -8 45h92z" />
    <glyph glyph-name="quotesingle" unicode="&#x2019;" horiz-adv-x="252" 
d="M200 667q5 -23 5 -45q0 -75 -44 -133.5t-113 -79.5v96q31 18 49.5 49t18.5 68q0 22 -8 45h92z" />
    <glyph glyph-name="quotesingle" unicode="&#x2018;" horiz-adv-x="252" 
d="M200 667q5 -23 5 -45q0 -75 -44 -133.5t-113 -79.5v96q31 18 49.5 49t18.5 68q0 22 -8 45h92z" />
    <glyph glyph-name="parenleft" unicode="(" horiz-adv-x="299" 
d="M252 667q-115 -190 -115 -431.5t115 -430.5h-109q-95 197 -95 430.5t95 431.5h109z" />
    <glyph glyph-name="parenright" unicode=")" horiz-adv-x="299" 
d="M48 -195q115 189 115 430.5t-115 431.5h108q96 -198 96 -431.5t-96 -430.5h-108z" />
    <glyph glyph-name="asterisk" unicode="*" horiz-adv-x="532" 
d="M48 561l34 82l140 -58v152h89v-152l140 58l34 -82l-140 -58l107 -107l-63 -63l-123 123l-123 -123l-63 63l108 107z" />
    <glyph glyph-name="plus" unicode="+" horiz-adv-x="542" 
d="M495 356v-89h-179v-179h-89v179h-179v89h179v179h89v-179h179z" />
    <glyph glyph-name="comma" unicode="," horiz-adv-x="252" 
d="M200 92q5 -22 5 -44q0 -75 -44 -133.5t-113 -79.5v96q31 18 49.5 49t18.5 68q0 22 -8 44h92z" />
    <glyph glyph-name="hyphen" unicode="-" horiz-adv-x="444" 
d="M396 198h-348v89h348v-89z" />
    <glyph glyph-name="period" unicode="." horiz-adv-x="184" 
d="M92.5 0q-18.5 0 -31.5 13t-13 31.5t13 31.5t31.5 13t31.5 -13t13 -31.5t-13 -31.5t-31.5 -13z" />
    <glyph glyph-name="slash" unicode="/" horiz-adv-x="438" 
d="M295 667h95l-247 -667h-95z" />
    <glyph glyph-name="zero" unicode="0" 
d="M270 577q-55 0 -94 -39.5t-39 -94.5v-220q0 -56 39 -95t94 -39t94.5 39t39.5 95v220q0 55 -39.5 94.5t-94.5 39.5zM48 443q0 92 65 157.5t157 65.5t157.5 -65.5t65.5 -157.5v-220q0 -92 -65.5 -157.5t-157.5 -65.5t-157 65.5t-65 157.5v220z" />
    <glyph glyph-name="one" unicode="1" horiz-adv-x="334" 
d="M197 0v419l-34 -41h-115l238 288v-666h-89z" />
    <glyph glyph-name="two" unicode="2" 
d="M401 264l-224 -175h316v-89h-445v101l298 233q27 19 42.5 47.5t15.5 62.5q0 55 -39.5 94.5t-94.5 39.5q-54 0 -93 -38.5t-40 -92.5h-89q1 91 66 155.5t156 64.5q92 0 157.5 -65.5t65.5 -157.5q0 -54 -25 -101.5t-67 -78.5l-27 34z" />
    <glyph glyph-name="three" unicode="3" horiz-adv-x="534" 
d="M407 333q37 -26 58 -63.5t21 -80.5q0 -78 -65 -133.5t-157 -55.5q-78 0 -138 41t-78 103h97q17 -24 49 -39.5t70 -15.5q54 0 93.5 29.5t39.5 70.5q0 40 -38.5 69.5t-91.5 30.5h-1.5h-1.5v89h1h2q53 1 91.5 30.5t38.5 69.5t-39.5 70t-93.5 30q-38 0 -70 -15.5t-49 -40.5
h-97q18 63 78 104t138 41q92 0 157 -55.5t65 -133.5q0 -43 -21 -80.5t-58 -64.5z" />
    <glyph glyph-name="four" unicode="4" horiz-adv-x="652" 
d="M471 244h133v-89h-133v-155h-89v155h-334l423 511v-422zM237 244h145v175z" />
    <glyph glyph-name="five" unicode="5" horiz-adv-x="542" 
d="M271 447q93 0 158.5 -65.5t65.5 -158t-65.5 -158t-158 -65.5t-158 65.5t-65.5 157.5h89q0 -55 39.5 -94.5t95 -39.5t95 39.5t39.5 95t-39.5 95t-95.5 39.5h-222v309h445v-89h-356v-131h133z" />
    <glyph glyph-name="six" unicode="6" 
d="M48 218v2.5v2.5v220q0 92 65 157.5t157 65.5q91 0 156.5 -65t66.5 -156h-89q-1 55 -40 93.5t-94 38.5t-94 -39.5t-39 -94.5v-43q59 45 133 45q92 0 157.5 -65t65.5 -157v-2.5v-2.5q-2 -91 -67 -154.5t-156 -63.5t-155.5 63.5t-66.5 154.5zM270 356q-55 0 -94 -39t-39 -94
q0 -38 19 -69t51 -49q5 -3 11 -5q10 -5 22 -7q15 -4 30 -4q55 0 94.5 39t39.5 94.5t-39.5 94.5t-94.5 39z" />
    <glyph glyph-name="seven" unicode="7" 
d="M48 667h445l-257 -667h-95l222 578h-315v89z" />
    <glyph glyph-name="eight" unicode="8" 
d="M414 333q37 -26 58 -63.5t21 -80.5q0 -78 -65.5 -133.5t-157.5 -55.5t-157 55.5t-65 133.5q0 43 21 80.5t58 63.5q-37 27 -58 64.5t-21 80.5q0 78 65 133.5t157 55.5t157.5 -55.5t65.5 -133.5q0 -43 -21 -80.5t-58 -64.5zM137 478q0 -40 38.5 -69.5t91.5 -30.5h1.5h2h1.5
h2q53 1 91.5 30.5t38.5 69.5t-39.5 70t-94 30t-94 -30t-39.5 -70zM270.5 89q54.5 0 94 29.5t39.5 70.5q0 40 -38.5 69.5t-91.5 30.5h-2h-1.5h-2h-1.5q-53 -1 -91.5 -30.5t-38.5 -69.5q0 -41 39.5 -70.5t94 -29.5z" />
    <glyph glyph-name="nine" unicode="9" 
d="M493 447v-1.5v-2.5v-220q0 -92 -65.5 -157.5t-157.5 -65.5q-91 0 -156 64.5t-66 155.5h89q1 -54 40 -92.5t93 -38.5q55 0 94.5 39t39.5 95v42q-60 -45 -134 -45q-92 0 -157 65.5t-65 157.5v2.5v1.5q2 91 66.5 155t155.5 64t156 -64t67 -155zM270 309q55 0 94.5 39.5
t39.5 94.5q0 37 -19 68.5t-51 48.5l-12 6q-10 4 -22 7q-15 4 -30 4q-55 0 -94 -39.5t-39 -94.5t39 -94.5t94 -39.5z" />
    <glyph glyph-name="colon" unicode=":" horiz-adv-x="184" 
d="M92.5 2q-18.5 0 -31.5 13t-13 31.5t13 31.5t31.5 13t31.5 -13t13 -31.5t-13 -31.5t-31.5 -13zM92.5 396q-18.5 0 -31.5 13t-13 31.5t13 31.5t31.5 13t31.5 -13t13 -31.5t-13 -31.5t-31.5 -13z" />
    <glyph glyph-name="semicolon" unicode=";" horiz-adv-x="252" 
d="M151.5 396q-18.5 0 -31.5 13t-13 31.5t13 31.5t31.5 13t31.5 -13t13 -31.5t-13 -31.5t-31.5 -13zM200 92q5 -22 5 -44q0 -75 -44 -133.5t-113 -79.5v96q31 18 49.5 49t18.5 68q0 22 -8 44h92z" />
    <glyph glyph-name="less" unicode="&#x3c;" 
d="M493 558v-100l-247 -123l247 -124v-100l-445 224z" />
    <glyph glyph-name="equal" unicode="=" 
d="M493 380h-445v89h445v-89zM493 202h-445v89h445v-89z" />
    <glyph glyph-name="greater" unicode="&#x3e;" 
d="M48 558l445 -223l-445 -224v100l246 124l-246 123v100z" />
    <glyph glyph-name="question" unicode="?" horiz-adv-x="330" 
d="M102.5 2q-18.5 0 -31.5 13t-13 31.5t13 31.5t31.5 13t31.5 -13t13 -31.5t-13 -31.5t-31.5 -13zM78 669q99 0 151.5 -54.5t52.5 -130.5q0 -54 -22.5 -96.5t-70 -98.5t-44.5 -110h1h-89q-4 86 65 167q38 45 54.5 74.5t16.5 63.5q0 45 -30.5 70.5t-84.5 25.5q-15 0 -30 -2
v89q17 2 30 2z" />
    <glyph glyph-name="at" unicode="@" horiz-adv-x="986" 
d="M448 -219q-155 15 -266.5 124.5t-130.5 264.5t63 288t229 185.5t295 1.5t231.5 -183t66 -287.5t-127.5 -265.5q-34 -34 -79.5 -42.5t-85 6t-68.5 50.5t-33 84q-25 -6 -51 -6l-28 2q8 -1 18 -1q-53 2 -99 28.5t-73 67.5t-36.5 92.5t9.5 103.5q23 71 82 112t131 40.5
t131 -44.5v44h89v-222q0 -92 -65 -158q-19 -19 -19 -46.5t19.5 -47.5t47 -20t47.5 20q88 88 102 211.5t-52 229t-183 147t-234.5 1t-184.5 -145t-54.5 -228t99.5 -212.5t210 -105v-89zM493 90q55 0 94 39t39 95q0 43 -24 76t-58 47.5t-74.5 8t-71 -37t-37 -71t7.5 -75
t47.5 -58.5t76.5 -24z" />
    <glyph glyph-name="A" unicode="A" horiz-adv-x="541" 
d="M404 446h89v-222q0 -93 -65 -158t-157.5 -65t-157.5 65t-65 157.5t65 157.5t157 65q74 0 134 -45v45zM137 223.5q0 -55.5 39 -94.5t94.5 -39t94.5 39t39 94.5t-39 94.5t-94.5 39t-94.5 -39t-39 -94.5z" />
    <glyph glyph-name="A" unicode="&#xc5;" horiz-adv-x="541" 
d="M404 446h89v-222q0 -93 -65 -158t-157.5 -65t-157.5 65t-65 157.5t65 157.5t157 65q74 0 134 -45v45zM137 223.5q0 -55.5 39 -94.5t94.5 -39t94.5 39t39 94.5t-39 94.5t-94.5 39t-94.5 -39t-39 -94.5z" />
    <glyph glyph-name="A" unicode="&#xc4;" horiz-adv-x="541" 
d="M404 446h89v-222q0 -93 -65 -158t-157.5 -65t-157.5 65t-65 157.5t65 157.5t157 65q74 0 134 -45v45zM137 223.5q0 -55.5 39 -94.5t94.5 -39t94.5 39t39 94.5t-39 94.5t-94.5 39t-94.5 -39t-39 -94.5z" />
    <glyph glyph-name="A" unicode="&#xc3;" horiz-adv-x="541" 
d="M404 446h89v-222q0 -93 -65 -158t-157.5 -65t-157.5 65t-65 157.5t65 157.5t157 65q74 0 134 -45v45zM137 223.5q0 -55.5 39 -94.5t94.5 -39t94.5 39t39 94.5t-39 94.5t-94.5 39t-94.5 -39t-39 -94.5z" />
    <glyph glyph-name="A" unicode="&#xc2;" horiz-adv-x="541" 
d="M404 446h89v-222q0 -93 -65 -158t-157.5 -65t-157.5 65t-65 157.5t65 157.5t157 65q74 0 134 -45v45zM137 223.5q0 -55.5 39 -94.5t94.5 -39t94.5 39t39 94.5t-39 94.5t-94.5 39t-94.5 -39t-39 -94.5z" />
    <glyph glyph-name="B" unicode="B" horiz-adv-x="542" 
d="M137 402q34 25 72 36.5t73.5 9t69.5 -16.5t61 -36.5t46.5 -53t28.5 -65t4.5 -74.5t-23.5 -78q-25 -50 -67.5 -81t-88.5 -39t-94 3.5t-85.5 39t-61.5 74t-24 103.5v443h89v-265zM270.5 90q55.5 0 94.5 39t39 94.5t-39 94.5t-94.5 39t-94.5 -39t-39 -94.5t39 -94.5
t94.5 -39z" />
    <glyph glyph-name="C" unicode="C" horiz-adv-x="475" 
d="M365 318q-31 31 -71.5 37.5t-74.5 -7.5t-58 -47.5t-24 -76.5t24 -76.5t58 -47.5t74.5 -7.5t71.5 36.5l63 -63q-41 -40 -93.5 -56t-101.5 -5.5t-91.5 38t-68 75.5t-25.5 105.5t25.5 106t68 76t91.5 38t101.5 -5.5t93.5 -57z" />
    <glyph glyph-name="C" unicode="&#xc7;" horiz-adv-x="475" 
d="M365 318q-31 31 -71.5 37.5t-74.5 -7.5t-58 -47.5t-24 -76.5t24 -76.5t58 -47.5t74.5 -7.5t71.5 36.5l63 -63q-41 -40 -93.5 -56t-101.5 -5.5t-91.5 38t-68 75.5t-25.5 105.5t25.5 106t68 76t91.5 38t101.5 -5.5t93.5 -57z" />
    <glyph glyph-name="D" unicode="D" horiz-adv-x="542" 
d="M73 124q-20 38 -24 78t5 74.5t28.5 65t46.5 53t61 36.5t69 16.5t73.5 -9t72.5 -36.5v265h89v-443q0 -57 -24 -103.5t-61.5 -74t-85.5 -39t-94.5 -3.5t-88.5 39t-67 81zM138 223.5q0 -55.5 39 -94.5t94.5 -39t94.5 39t39 94.5t-39 94.5t-94.5 39t-94.5 -39t-39 -94.5z" />
    <glyph glyph-name="E" unicode="E" 
d="M492 201h-353q8 -48 45 -79.5t86 -31.5q63 0 103 48l86 -32q-30 -48 -80 -76.5t-109 -28.5q-86 0 -149.5 57.5t-71.5 142.5q-1 12 -1 22q0 16 3 35q2 18 7 32q8 26 24 51q30 48 80 76.5t108 28.5q74 0 132.5 -43.5t80.5 -112.5q10 -32 10 -67q0 -10 -1 -22zM168 309
q-7 -8 -13 -19h231q-18 31 -48.5 49t-67.5 18q-62 0 -102 -48z" />
    <glyph glyph-name="E" unicode="&#xcb;" 
d="M492 201h-353q8 -48 45 -79.5t86 -31.5q63 0 103 48l86 -32q-30 -48 -80 -76.5t-109 -28.5q-86 0 -149.5 57.5t-71.5 142.5q-1 12 -1 22q0 16 3 35q2 18 7 32q8 26 24 51q30 48 80 76.5t108 28.5q74 0 132.5 -43.5t80.5 -112.5q10 -32 10 -67q0 -10 -1 -22zM168 309
q-7 -8 -13 -19h231q-18 31 -48.5 49t-67.5 18q-62 0 -102 -48z" />
    <glyph glyph-name="E" unicode="&#xca;" 
d="M492 201h-353q8 -48 45 -79.5t86 -31.5q63 0 103 48l86 -32q-30 -48 -80 -76.5t-109 -28.5q-86 0 -149.5 57.5t-71.5 142.5q-1 12 -1 22q0 16 3 35q2 18 7 32q8 26 24 51q30 48 80 76.5t108 28.5q74 0 132.5 -43.5t80.5 -112.5q10 -32 10 -67q0 -10 -1 -22zM168 309
q-7 -8 -13 -19h231q-18 31 -48.5 49t-67.5 18q-62 0 -102 -48z" />
    <glyph glyph-name="F" unicode="F" horiz-adv-x="475" 
d="M137 222v-221h-89v443q0 58 25.5 106.5t68 76t91.5 37.5t101.5 -5.5t93.5 -56.5l-63 -63q-31 30 -71.5 37t-74.5 -7.5t-58 -48t-24 -76.5v-133h133v-89h-133z" />
    <glyph glyph-name="G" unicode="G" horiz-adv-x="542" 
d="M272 -135q55 0 94 39t39 95v44q-34 -25 -72.5 -36.5t-73.5 -9t-69 16.5t-61 36.5t-46.5 53t-28.5 65t-5 74.5t24 78q25 50 67 81t88.5 39t94.5 -3.5t85.5 -39t61.5 -74t24 -103.5v-222q0 -93 -65 -158t-157 -65v89zM271.5 88q55.5 0 94.5 39t39 94.5t-39 94.5t-94.5 39
t-94.5 -39t-39 -94.5t39 -94.5t94.5 -39z" />
    <glyph glyph-name="H" unicode="H" 
d="M137 401q42 33 92.5 42t96 -4t84 -41.5t61 -74.5t22.5 -100v-222h-89v222q0 56 -39 95t-94.5 39t-94.5 -39t-39 -95v-222h-89v222v444h89v-266z" />
    <glyph glyph-name="I" unicode="I" horiz-adv-x="184" 
d="M137 1h-89v445h89v-445z" />
    <glyph glyph-name="I" unicode="&#xcf;" horiz-adv-x="184" 
d="M137 1h-89v445h89v-445z" />
    <glyph glyph-name="I" unicode="&#xce;" horiz-adv-x="184" 
d="M137 1h-89v445h89v-445z" />
    <glyph glyph-name="J" unicode="J" horiz-adv-x="318" 
d="M181 223v446h89v-446q0 -92 -65 -157t-157 -65v89q55 0 94 39t39 94z" />
    <glyph glyph-name="K" unicode="K" horiz-adv-x="469" 
d="M421 446l-223 -223l223 -222h-126l-158 158v-158h-89v666h89v-379l158 158h126z" />
    <glyph glyph-name="L" unicode="L" horiz-adv-x="184" 
d="M137 1h-89v666h89v-666z" />
    <glyph glyph-name="M" unicode="M" horiz-adv-x="629" 
d="M315 399q35 36 82.5 44t87.5 -8.5t68.5 -55.5t28.5 -89v-289h-89v289q0 28 -19.5 47.5t-47.5 19.5t-47.5 -19.5t-19.5 -47.5v-289h-44h-45v289q0 28 -19.5 47.5t-47 19.5t-47 -19.5t-19.5 -47.5v-289h-89v289q0 50 28 89t68.5 55.5t87.5 8.5t83 -44z" />
    <glyph glyph-name="N" unicode="N" horiz-adv-x="496" 
d="M137 1h-89v247q0 83 58.5 141.5t141.5 58.5t141.5 -58.5t58.5 -141.5v-247h-89v247q0 46 -32.5 78.5t-78.5 32.5t-78.5 -32.5t-32.5 -78.5v-247z" />
    <glyph glyph-name="N" unicode="&#xd1;" horiz-adv-x="496" 
d="M137 1h-89v247q0 83 58.5 141.5t141.5 58.5t141.5 -58.5t58.5 -141.5v-247h-89v247q0 46 -32.5 78.5t-78.5 32.5t-78.5 -32.5t-32.5 -78.5v-247z" />
    <glyph glyph-name="O" unicode="O" 
d="M493 223.5q0 -92.5 -65.5 -157.5t-157.5 -65t-157 65t-65 157.5t65 157.5t157 65t157.5 -65t65.5 -157.5zM137 223.5q0 -55.5 39 -94.5t94.5 -39t94.5 39t39 94.5t-39 94.5t-94.5 39t-94.5 -39t-39 -94.5z" />
    <glyph glyph-name="O" unicode="&#xd8;" 
d="M493 223.5q0 -92.5 -65.5 -157.5t-157.5 -65t-157 65t-65 157.5t65 157.5t157 65t157.5 -65t65.5 -157.5zM137 223.5q0 -55.5 39 -94.5t94.5 -39t94.5 39t39 94.5t-39 94.5t-94.5 39t-94.5 -39t-39 -94.5z" />
    <glyph glyph-name="O" unicode="&#xd6;" 
d="M493 223.5q0 -92.5 -65.5 -157.5t-157.5 -65t-157 65t-65 157.5t65 157.5t157 65t157.5 -65t65.5 -157.5zM137 223.5q0 -55.5 39 -94.5t94.5 -39t94.5 39t39 94.5t-39 94.5t-94.5 39t-94.5 -39t-39 -94.5z" />
    <glyph glyph-name="O" unicode="&#xd5;" 
d="M493 223.5q0 -92.5 -65.5 -157.5t-157.5 -65t-157 65t-65 157.5t65 157.5t157 65t157.5 -65t65.5 -157.5zM137 223.5q0 -55.5 39 -94.5t94.5 -39t94.5 39t39 94.5t-39 94.5t-94.5 39t-94.5 -39t-39 -94.5z" />
    <glyph glyph-name="O" unicode="&#xd4;" 
d="M493 223.5q0 -92.5 -65.5 -157.5t-157.5 -65t-157 65t-65 157.5t65 157.5t157 65t157.5 -65t65.5 -157.5zM137 223.5q0 -55.5 39 -94.5t94.5 -39t94.5 39t39 94.5t-39 94.5t-94.5 39t-94.5 -39t-39 -94.5z" />
    <glyph glyph-name="P" unicode="P" horiz-adv-x="542" 
d="M48 224q0 57 24 103.5t61.5 74t85.5 39t94 3.5t88.5 -39t67.5 -81q19 -39 23.5 -78.5t-4.5 -74t-28.5 -65t-46.5 -53.5t-61 -36.5t-69.5 -16t-73.5 8.5t-72 37v-267h-89v445zM270.5 91q55.5 0 94.5 39t39 94t-39 94.5t-94.5 39.5t-94.5 -39.5t-39 -94.5t39 -94t94.5 -39z
" />
    <glyph glyph-name="Q" unicode="Q" horiz-adv-x="542" 
d="M405 46q-34 -26 -72.5 -37t-73.5 -8.5t-69 16t-61 36.5t-46.5 53.5t-28.5 65t-5 74t23 78.5q26 50 68 81t88.5 39t94 -3.5t85.5 -39t62 -74t24 -103.5v-445h-89v267zM271.5 358q-55.5 0 -94.5 -39.5t-39 -94.5t39 -94t94.5 -39t94.5 39t39 94t-39 94.5t-94.5 39.5z" />
    <glyph glyph-name="R" unicode="R" horiz-adv-x="318" 
d="M137 446v-45q59 45 133 45v-89q-55 0 -94 -39t-39 -95v-222h-89v222v223h89z" />
    <glyph glyph-name="S" unicode="S" horiz-adv-x="461" 
d="M181 357q-18 0 -31 -13t-13 -31.5t13 -31.5t31 -13h99q13 0 26 -3q46 -9 76.5 -45.5t30.5 -85.5q0 -55 -39 -94t-94 -39h-201v89h201q18 0 31 13t13 31.5t-13 31.5t-31 13h-99q-13 0 -26 2q-46 10 -76.5 46.5t-30.5 84.5q0 56 39 95t94 39h201v-89h-201z" />
    <glyph glyph-name="T" unicode="T" horiz-adv-x="318" 
d="M137 669v-223h133v-89h-133v-134q0 -55 39 -94t94 -39v-89q-92 0 -157 65t-65 157v446h89z" />
    <glyph glyph-name="U" unicode="U" horiz-adv-x="496" 
d="M359 448h89v-247q0 -83 -58.5 -141.5t-141.5 -58.5t-141.5 58.5t-58.5 141.5v247h89v-247q0 -46 32.5 -78.5t78.5 -32.5t78.5 32.5t32.5 78.5v247z" />
    <glyph glyph-name="U" unicode="&#xdc;" horiz-adv-x="496" 
d="M359 448h89v-247q0 -83 -58.5 -141.5t-141.5 -58.5t-141.5 58.5t-58.5 141.5v247h89v-247q0 -46 32.5 -78.5t78.5 -32.5t78.5 32.5t32.5 78.5v247z" />
    <glyph glyph-name="U" unicode="&#xdb;" horiz-adv-x="496" 
d="M359 448h89v-247q0 -83 -58.5 -141.5t-141.5 -58.5t-141.5 58.5t-58.5 141.5v247h89v-247q0 -46 32.5 -78.5t78.5 -32.5t78.5 32.5t32.5 78.5v247z" />
    <glyph glyph-name="V" unicode="V" 
d="M270 200l123 246h100l-223 -445l-222 445h99z" />
    <glyph glyph-name="W" unicode="W" horiz-adv-x="629" 
d="M315 48q-36 -36 -83 -44t-87.5 8.5t-68.5 55t-28 89.5v223v66h89v-66v-223q0 -28 19.5 -47.5t47 -19.5t47 19.5t19.5 47.5v223v66h89v-66v-223q0 -28 19.5 -47.5t47.5 -19.5t47.5 19.5t19.5 47.5v223v66h89v-66v-223q0 -51 -28.5 -89.5t-68.5 -55t-87.5 -8.5t-82.5 44z
" />
    <glyph glyph-name="X" unicode="X" horiz-adv-x="535" 
d="M487 448l-164 -224l164 -223h-110l-110 148l-109 -148h-110l164 223l-164 224h110l109 -149l110 149h110z" />
    <glyph glyph-name="Y" unicode="Y" 
d="M48 223v112v111h89v-223q0 -55 39 -94t94.5 -39t94.5 39t39 94v223h89v-445q0 -92 -65.5 -157.5t-157.5 -65.5v89q56 0 95 39t39 95v44q-43 -32 -93.5 -41.5t-96 4t-83.5 42t-60.5 74.5t-22.5 99z" />
    <glyph glyph-name="Y" unicode="&#xdd;" 
d="M48 223v112v111h89v-223q0 -55 39 -94t94.5 -39t94.5 39t39 94v223h89v-445q0 -92 -65.5 -157.5t-157.5 -65.5v89q56 0 95 39t39 95v44q-43 -32 -93.5 -41.5t-96 4t-83.5 42t-60.5 74.5t-22.5 99z" />
    <glyph glyph-name="Z" unicode="Z" 
d="M48 446h445l-268 -356h268v-89h-445l268 356h-268v89z" />
    <glyph glyph-name="backslash" unicode="\" horiz-adv-x="438" 
d="M390 0h-95l-247 667h95z" />
    <glyph glyph-name="underscore" unicode="_" horiz-adv-x="637" 
d="M589 -194h-541v89h541v-89z" />
    <glyph glyph-name="a" unicode="a" horiz-adv-x="541" 
d="M404 445h89v-222q0 -93 -65 -158t-157.5 -65t-157.5 65t-65 157.5t65 157.5t157 65q74 0 134 -45v45zM137 222.5q0 -55.5 39 -94.5t94.5 -39t94.5 39t39 94.5t-39 94.5t-94.5 39t-94.5 -39t-39 -94.5z" />
    <glyph glyph-name="a" unicode="&#xe5;" horiz-adv-x="541" 
d="M404 445h89v-222q0 -93 -65 -158t-157.5 -65t-157.5 65t-65 157.5t65 157.5t157 65q74 0 134 -45v45zM137 222.5q0 -55.5 39 -94.5t94.5 -39t94.5 39t39 94.5t-39 94.5t-94.5 39t-94.5 -39t-39 -94.5z" />
    <glyph glyph-name="a" unicode="&#xe4;" horiz-adv-x="541" 
d="M404 445h89v-222q0 -93 -65 -158t-157.5 -65t-157.5 65t-65 157.5t65 157.5t157 65q74 0 134 -45v45zM137 222.5q0 -55.5 39 -94.5t94.5 -39t94.5 39t39 94.5t-39 94.5t-94.5 39t-94.5 -39t-39 -94.5z" />
    <glyph glyph-name="a" unicode="&#xe3;" horiz-adv-x="541" 
d="M404 445h89v-222q0 -93 -65 -158t-157.5 -65t-157.5 65t-65 157.5t65 157.5t157 65q74 0 134 -45v45zM137 222.5q0 -55.5 39 -94.5t94.5 -39t94.5 39t39 94.5t-39 94.5t-94.5 39t-94.5 -39t-39 -94.5z" />
    <glyph glyph-name="a" unicode="&#xe2;" horiz-adv-x="541" 
d="M404 445h89v-222q0 -93 -65 -158t-157.5 -65t-157.5 65t-65 157.5t65 157.5t157 65q74 0 134 -45v45zM137 222.5q0 -55.5 39 -94.5t94.5 -39t94.5 39t39 94.5t-39 94.5t-94.5 39t-94.5 -39t-39 -94.5z" />
    <glyph glyph-name="b" unicode="b" horiz-adv-x="542" 
d="M137 401q34 26 72 37t73.5 8.5t69.5 -16t61 -36.5t46.5 -53.5t28.5 -65t4.5 -74t-23.5 -78.5q-25 -50 -67.5 -81t-88.5 -39t-94 3.5t-85.5 39t-61.5 74t-24 103.5v444h89v-266zM270.5 89q55.5 0 94.5 39.5t39 94.5t-39 94t-94.5 39t-94.5 -39t-39 -94t39 -94.5
t94.5 -39.5z" />
    <glyph glyph-name="c" unicode="c" horiz-adv-x="475" 
d="M365 317q-31 31 -71.5 37.5t-74.5 -7.5t-58 -47.5t-24 -76.5t24 -76.5t58 -47.5t74.5 -7.5t71.5 37.5l63 -63q-41 -41 -93.5 -57t-101.5 -5.5t-91.5 38t-68 76t-25.5 106t25.5 105.5t68 75.5t91.5 38t101.5 -5.5t93.5 -57z" />
    <glyph glyph-name="c" unicode="&#xe7;" horiz-adv-x="475" 
d="M365 317q-31 31 -71.5 37.5t-74.5 -7.5t-58 -47.5t-24 -76.5t24 -76.5t58 -47.5t74.5 -7.5t71.5 37.5l63 -63q-41 -41 -93.5 -57t-101.5 -5.5t-91.5 38t-68 76t-25.5 106t25.5 105.5t68 75.5t91.5 38t101.5 -5.5t93.5 -57z" />
    <glyph glyph-name="d" unicode="d" horiz-adv-x="542" 
d="M73 123q-20 39 -24 78.5t5 74t28.5 65t46.5 53.5t61 36.5t69 16t73.5 -8.5t72.5 -37v266h89v-444q0 -57 -24 -103.5t-61.5 -74t-85.5 -39t-94.5 -3.5t-88.5 39t-67 81zM138 223q0 -55 39 -94.5t94.5 -39.5t94.5 39.5t39 94.5t-39 94t-94.5 39t-94.5 -39t-39 -94z" />
    <glyph glyph-name="e" unicode="e" 
d="M492 200h-353q8 -47 45 -79t86 -32q63 0 103 48l86 -32q-30 -48 -80 -76.5t-109 -28.5q-86 0 -149.5 58t-71.5 142q-1 12 -1 23q0 15 3 34q2 18 7 32q8 26 24 51q30 48 80 76.5t108 28.5q74 0 132.5 -43.5t80.5 -112.5q10 -32 10 -66q0 -11 -1 -23zM168 308
q-7 -8 -13 -19h231q-18 31 -48.5 49t-67.5 18q-62 0 -102 -48z" />
    <glyph glyph-name="e" unicode="&#xeb;" 
d="M492 200h-353q8 -47 45 -79t86 -32q63 0 103 48l86 -32q-30 -48 -80 -76.5t-109 -28.5q-86 0 -149.5 58t-71.5 142q-1 12 -1 23q0 15 3 34q2 18 7 32q8 26 24 51q30 48 80 76.5t108 28.5q74 0 132.5 -43.5t80.5 -112.5q10 -32 10 -66q0 -11 -1 -23zM168 308
q-7 -8 -13 -19h231q-18 31 -48.5 49t-67.5 18q-62 0 -102 -48z" />
    <glyph glyph-name="e" unicode="&#xea;" 
d="M492 200h-353q8 -47 45 -79t86 -32q63 0 103 48l86 -32q-30 -48 -80 -76.5t-109 -28.5q-86 0 -149.5 58t-71.5 142q-1 12 -1 23q0 15 3 34q2 18 7 32q8 26 24 51q30 48 80 76.5t108 28.5q74 0 132.5 -43.5t80.5 -112.5q10 -32 10 -66q0 -11 -1 -23zM168 308
q-7 -8 -13 -19h231q-18 31 -48.5 49t-67.5 18q-62 0 -102 -48z" />
    <glyph glyph-name="f" unicode="f" horiz-adv-x="475" 
d="M137 221v-221h-89v444q0 57 25.5 105.5t68 76t91.5 38t101.5 -5.5t93.5 -57l-63 -63q-31 30 -71.5 37t-74.5 -7.5t-58 -47.5t-24 -76v-134h133v-89h-133z" />
    <glyph glyph-name="g" unicode="g" horiz-adv-x="542" 
d="M272 -129q55 0 94 39t39 95v44q-34 -26 -72.5 -37t-73.5 -8.5t-69 16t-61 36.5t-46.5 53.5t-28.5 65t-5 74t24 78.5q25 50 67 81t88.5 39t94.5 -3.5t85.5 -39t61.5 -74t24 -103.5v-222q0 -93 -65 -158t-157 -65v89zM271.5 94q55.5 0 94.5 39t39 94t-39 94.5t-94.5 39.5
t-94.5 -39.5t-39 -94.5t39 -94t94.5 -39z" />
    <glyph glyph-name="h" unicode="h" 
d="M137 401q42 32 92.5 41.5t96 -4t84 -42t61 -74.5t22.5 -99v-223h-89v223q0 55 -39 94t-94.5 39t-94.5 -39t-39 -94v-223h-89v223v444h89v-266z" />
    <glyph glyph-name="i" unicode="i" horiz-adv-x="184" 
d="M137 0h-89v445h89v-445z" />
    <glyph glyph-name="i" unicode="&#xef;" horiz-adv-x="184" 
d="M137 0h-89v445h89v-445z" />
    <glyph glyph-name="i" unicode="&#xee;" horiz-adv-x="184" 
d="M137 0h-89v445h89v-445z" />
    <glyph glyph-name="j" unicode="j" horiz-adv-x="318" 
d="M181 5v445h89v-445q0 -93 -65 -158t-157 -65v89q55 0 94 39t39 95z" />
    <glyph glyph-name="k" unicode="k" horiz-adv-x="469" 
d="M421 445l-223 -223l223 -222h-126l-158 158v-158h-89v667h89v-380l158 158h126z" />
    <glyph glyph-name="l" unicode="l" horiz-adv-x="184" 
d="M137 0h-89v667h89v-667z" />
    <glyph glyph-name="m" unicode="m" horiz-adv-x="629" 
d="M315 398q35 36 82.5 44t87.5 -8.5t68.5 -55t28.5 -89.5v-289h-89v289q0 28 -19.5 47.5t-47.5 19.5t-47.5 -19.5t-19.5 -47.5v-289h-44h-45v289q0 28 -19.5 47.5t-47 19.5t-47 -19.5t-19.5 -47.5v-289h-89v289q0 51 28 89.5t68.5 55t87.5 8.5t83 -44z" />
    <glyph glyph-name="n" unicode="n" horiz-adv-x="496" 
d="M137 0h-89v247q0 83 58.5 141.5t141.5 58.5t141.5 -58.5t58.5 -141.5v-247h-89v247q0 46 -32.5 78.5t-78.5 32.5t-78.5 -32.5t-32.5 -78.5v-247z" />
    <glyph glyph-name="n" unicode="&#xf1;" horiz-adv-x="496" 
d="M137 0h-89v247q0 83 58.5 141.5t141.5 58.5t141.5 -58.5t58.5 -141.5v-247h-89v247q0 46 -32.5 78.5t-78.5 32.5t-78.5 -32.5t-32.5 -78.5v-247z" />
    <glyph glyph-name="o" unicode="o" 
d="M493 222.5q0 -92.5 -65.5 -157.5t-157.5 -65t-157 65t-65 157.5t65 157.5t157 65t157.5 -65t65.5 -157.5zM137 222.5q0 -55.5 39 -94.5t94.5 -39t94.5 39t39 94.5t-39 94.5t-94.5 39t-94.5 -39t-39 -94.5z" />
    <glyph glyph-name="o" unicode="&#xf8;" 
d="M493 222.5q0 -92.5 -65.5 -157.5t-157.5 -65t-157 65t-65 157.5t65 157.5t157 65t157.5 -65t65.5 -157.5zM137 222.5q0 -55.5 39 -94.5t94.5 -39t94.5 39t39 94.5t-39 94.5t-94.5 39t-94.5 -39t-39 -94.5z" />
    <glyph glyph-name="o" unicode="&#xf6;" 
d="M493 222.5q0 -92.5 -65.5 -157.5t-157.5 -65t-157 65t-65 157.5t65 157.5t157 65t157.5 -65t65.5 -157.5zM137 222.5q0 -55.5 39 -94.5t94.5 -39t94.5 39t39 94.5t-39 94.5t-94.5 39t-94.5 -39t-39 -94.5z" />
    <glyph glyph-name="o" unicode="&#xf5;" 
d="M493 222.5q0 -92.5 -65.5 -157.5t-157.5 -65t-157 65t-65 157.5t65 157.5t157 65t157.5 -65t65.5 -157.5zM137 222.5q0 -55.5 39 -94.5t94.5 -39t94.5 39t39 94.5t-39 94.5t-94.5 39t-94.5 -39t-39 -94.5z" />
    <glyph glyph-name="o" unicode="&#xf4;" 
d="M493 222.5q0 -92.5 -65.5 -157.5t-157.5 -65t-157 65t-65 157.5t65 157.5t157 65t157.5 -65t65.5 -157.5zM137 222.5q0 -55.5 39 -94.5t94.5 -39t94.5 39t39 94.5t-39 94.5t-94.5 39t-94.5 -39t-39 -94.5z" />
    <glyph glyph-name="p" unicode="p" horiz-adv-x="542" 
d="M48 223q0 57 24 103.5t61.5 74t85.5 39t94 3.5t88.5 -39t67.5 -81q19 -38 23.5 -78t-4.5 -74.5t-28.5 -65t-46.5 -53t-61 -36.5t-69.5 -16.5t-73.5 9t-72 36.5v-267h-89v445zM270.5 90q55.5 0 94.5 39t39 94.5t-39 94.5t-94.5 39t-94.5 -39t-39 -94.5t39 -94.5t94.5 -39z
" />
    <glyph glyph-name="q" unicode="q" horiz-adv-x="542" 
d="M405 45q-34 -25 -72.5 -36.5t-73.5 -9t-69 16.5t-61 36.5t-46.5 53t-28.5 65t-5 74.5t23 78q26 50 68 81t88.5 39t94 -3.5t85.5 -39t62 -74t24 -103.5v-445h-89v267zM271.5 357q-55.5 0 -94.5 -39t-39 -94.5t39 -94.5t94.5 -39t94.5 39t39 94.5t-39 94.5t-94.5 39z" />
    <glyph glyph-name="r" unicode="r" horiz-adv-x="318" 
d="M137 445v-44q59 44 133 44v-89q-55 0 -94 -39t-39 -95v-222h-89v222v223h89z" />
    <glyph glyph-name="s" unicode="s" horiz-adv-x="461" 
d="M181 356q-18 0 -31 -13t-13 -31.5t13 -31.5t31 -13h99q13 0 26 -2q46 -10 76.5 -46.5t30.5 -84.5q0 -56 -39 -95t-94 -39h-201v89h201q18 0 31 13t13 31.5t-13 31.5t-31 13h-99q-13 0 -26 3q-46 9 -76.5 45.5t-30.5 85.5q0 55 39 94t94 39h201v-89h-201z" />
    <glyph glyph-name="s" unicode="&#xdf;" horiz-adv-x="461" 
d="M181 356q-18 0 -31 -13t-13 -31.5t13 -31.5t31 -13h99q13 0 26 -2q46 -10 76.5 -46.5t30.5 -84.5q0 -56 -39 -95t-94 -39h-201v89h201q18 0 31 13t13 31.5t-13 31.5t-31 13h-99q-13 0 -26 3q-46 9 -76.5 45.5t-30.5 85.5q0 55 39 94t94 39h201v-89h-201z" />
    <glyph glyph-name="t" unicode="t" horiz-adv-x="318" 
d="M137 668v-223h133v-89h-133v-133q0 -56 39 -95t94 -39v-89q-92 0 -157 65t-65 158v445h89z" />
    <glyph glyph-name="u" unicode="u" horiz-adv-x="496" 
d="M359 447h89v-247q0 -83 -58.5 -141.5t-141.5 -58.5t-141.5 58.5t-58.5 141.5v247h89v-247q0 -46 32.5 -78.5t78.5 -32.5t78.5 32.5t32.5 78.5v247z" />
    <glyph glyph-name="u" unicode="&#xfc;" horiz-adv-x="496" 
d="M359 447h89v-247q0 -83 -58.5 -141.5t-141.5 -58.5t-141.5 58.5t-58.5 141.5v247h89v-247q0 -46 32.5 -78.5t78.5 -32.5t78.5 32.5t32.5 78.5v247z" />
    <glyph glyph-name="u" unicode="&#xfb;" horiz-adv-x="496" 
d="M359 447h89v-247q0 -83 -58.5 -141.5t-141.5 -58.5t-141.5 58.5t-58.5 141.5v247h89v-247q0 -46 32.5 -78.5t78.5 -32.5t78.5 32.5t32.5 78.5v247z" />
    <glyph glyph-name="v" unicode="v" 
d="M270 199l123 246h100l-223 -445l-222 445h99z" />
    <glyph glyph-name="w" unicode="w" horiz-adv-x="629" 
d="M315 47q-36 -36 -83 -44t-87.5 8.5t-68.5 55.5t-28 89v223v66h89v-66v-223q0 -28 19.5 -47.5t47 -19.5t47 19.5t19.5 47.5v223v66h89v-66v-223q0 -28 19.5 -47.5t47.5 -19.5t47.5 19.5t19.5 47.5v223v66h89v-66v-223q0 -50 -28.5 -89t-68.5 -55.5t-87.5 -8.5t-82.5 44z
" />
    <glyph glyph-name="x" unicode="x" horiz-adv-x="535" 
d="M487 447l-164 -224l164 -223h-110l-110 148l-109 -148h-110l164 223l-164 224h110l109 -148l110 148h110z" />
    <glyph glyph-name="y" unicode="y" 
d="M48 223v111v111h89v-222q0 -56 39 -95t94.5 -39t94.5 39t39 95v222h89v-445q0 -92 -65.5 -157.5t-157.5 -65.5v89q56 0 95 39.5t39 94.5v44q-43 -32 -93.5 -41t-96 4t-83.5 41.5t-60.5 74.5t-22.5 100z" />
    <glyph glyph-name="y" unicode="&#xff;" 
d="M48 223v111v111h89v-222q0 -56 39 -95t94.5 -39t94.5 39t39 95v222h89v-445q0 -92 -65.5 -157.5t-157.5 -65.5v89q56 0 95 39.5t39 94.5v44q-43 -32 -93.5 -41t-96 4t-83.5 41.5t-60.5 74.5t-22.5 100z" />
    <glyph glyph-name="y" unicode="&#xfd;" 
d="M48 223v111v111h89v-222q0 -56 39 -95t94.5 -39t94.5 39t39 95v222h89v-445q0 -92 -65.5 -157.5t-157.5 -65.5v89q56 0 95 39.5t39 94.5v44q-43 -32 -93.5 -41t-96 4t-83.5 41.5t-60.5 74.5t-22.5 100z" />
    <glyph glyph-name="z" unicode="z" 
d="M48 445h445l-268 -356h268v-89h-445l268 356h-268v89z" />
    <glyph glyph-name="nonbreakingspace" unicode="&#xa0;" horiz-adv-x="1135" 
 />
    <glyph glyph-name="softhyphen" unicode="&#xad;" horiz-adv-x="1135" 
 />
    <glyph glyph-name="Agrave" unicode="&#xc0;" horiz-adv-x="541" 
d="M404 445h89v-223q0 -92 -65 -157t-157.5 -65t-157.5 65t-65 157.5t65 157.5t157 65q74 0 134 -45v45zM270.5 89q55.5 0 94.5 39t39 94.5t-39 94.5t-94.5 39t-94.5 -39t-39 -94.5t39 -94.5t94.5 -39zM280 518q-18 27 -47.5 43t-63.5 16h-3.5h-3.5v89h3h4q72 0 129.5 -41
t80.5 -107h-99z" />
    <glyph glyph-name="Aacute" unicode="&#xc1;" horiz-adv-x="541" 
d="M404 445h89v-223q0 -92 -65 -157t-157.5 -65t-157.5 65t-65 157.5t65 157.5t157 65q74 0 134 -45v45zM270.5 89q55.5 0 94.5 39t39 94.5t-39 94.5t-94.5 39t-94.5 -39t-39 -94.5t39 -94.5t94.5 -39zM371 577q-34 0 -63 -16t-48 -43h-98q23 66 80.5 107t128.5 41h4.5h3.5
v-89h-3.5h-4.5z" />
    <glyph glyph-name="Egrave" unicode="&#xc8;" 
d="M492 202h-353q8 -48 45 -79.5t86 -31.5q63 0 103 48l86 -33q-30 -48 -80 -76.5t-109 -28.5q-86 0 -149.5 58t-71.5 143q-1 11 -1 22q0 15 3 34q2 18 7 33q8 26 24 51q30 48 80 76.5t108 28.5q74 0 132.5 -44t80.5 -112q10 -33 10 -67q0 -11 -1 -22zM168 310
q-7 -9 -13 -19h231q-18 30 -48.5 48.5t-67.5 18.5q-62 0 -102 -48zM280 520q-18 27 -47.5 43t-63.5 16h-3.5h-3.5v89h3h4q72 0 129.5 -41.5t80.5 -106.5h-99z" />
    <glyph glyph-name="Eacute" unicode="&#xc9;" 
d="M492 202h-353q8 -48 45 -79.5t86 -31.5q63 0 103 48l86 -33q-30 -48 -80 -76.5t-109 -28.5q-86 0 -149.5 58t-71.5 143q-1 11 -1 22q0 15 3 34q2 18 7 33q8 26 24 51q30 48 80 76.5t108 28.5q74 0 132.5 -44t80.5 -112q10 -33 10 -67q0 -11 -1 -22zM168 310
q-7 -9 -13 -19h231q-18 30 -48.5 48.5t-67.5 18.5q-62 0 -102 -48zM371 579q-34 0 -63 -16t-48 -43h-98q23 65 80.5 106.5t128.5 41.5h4.5h3.5v-89h-8z" />
    <glyph glyph-name="Igrave" unicode="&#xcc;" horiz-adv-x="312" 
d="M265 1h-89v446h89v-446zM55 668q72 0 129 -41.5t81 -106.5h-99q-18 27 -47.5 43t-63.5 16h-4h-3v89h3h4z" />
    <glyph glyph-name="Iacute" unicode="&#xcd;" horiz-adv-x="312" 
d="M138 1h-89v446h89v-446zM257 668h4.5h3.5v-89h-8q-34 0 -63 -16t-48 -43h-98q23 65 80.5 106.5t128.5 41.5z" />
    <glyph glyph-name="Ograve" unicode="&#xd2;" 
d="M270 447q92 0 157.5 -65.5t65.5 -157.5t-65.5 -157.5t-157.5 -65.5t-157 65.5t-65 157.5t65 157.5t157 65.5zM270.5 91q55.5 0 94.5 39t39 94t-39 94.5t-94.5 39.5t-94.5 -39.5t-39 -94.5t39 -94t94.5 -39zM280 520q-18 27 -47.5 43t-63.5 16h-3.5h-3.5v89h3h4
q72 0 129 -41.5t81 -106.5h-99z" />
    <glyph glyph-name="Oacute" unicode="&#xd3;" 
d="M270 447q92 0 157.5 -65.5t65.5 -157.5t-65.5 -157.5t-157.5 -65.5t-157 65.5t-65 157.5t65 157.5t157 65.5zM270.5 91q55.5 0 94.5 39t39 94t-39 94.5t-94.5 39.5t-94.5 -39.5t-39 -94.5t39 -94t94.5 -39zM371 579q-34 0 -63 -16t-48 -43h-98q23 65 80.5 106.5
t128.5 41.5h4.5h3.5v-89h-8z" />
    <glyph glyph-name="Ugrave" unicode="&#xd9;" horiz-adv-x="496" 
d="M258 521q-18 27 -47.5 43t-63.5 16h-5h-3v89h8q72 0 129 -41.5t81 -106.5h-99zM359 449h89v-247q0 -83 -58.5 -142t-141.5 -59t-141.5 59t-58.5 142v247h89v-247q0 -46 32.5 -78.5t78.5 -32.5t78.5 32.5t32.5 78.5v247z" />
    <glyph glyph-name="Uacute" unicode="&#xda;" horiz-adv-x="496" 
d="M349 580q-34 0 -63.5 -16t-47.5 -43h-99q24 65 81 106.5t129 41.5h4.5h3.5v-90zM359 449h89v-247q0 -83 -58.5 -142t-141.5 -59t-141.5 59t-58.5 142v247h89v-247q0 -46 32.5 -78.5t78.5 -32.5t78.5 32.5t32.5 78.5v247z" />
    <glyph glyph-name="agrave" unicode="&#xe0;" horiz-adv-x="541" 
d="M404 445h89v-223q0 -92 -65 -157t-157.5 -65t-157.5 65t-65 157.5t65 157.5t157 65q74 0 134 -45v45zM270.5 89q55.5 0 94.5 39t39 94.5t-39 94.5t-94.5 39t-94.5 -39t-39 -94.5t39 -94.5t94.5 -39zM280 518q-18 27 -47.5 43t-63.5 16h-3.5h-3.5v89h3h4q72 0 129.5 -41
t80.5 -107h-99z" />
    <glyph glyph-name="aacute" unicode="&#xe1;" horiz-adv-x="541" 
d="M404 445h89v-223q0 -92 -65 -157t-157.5 -65t-157.5 65t-65 157.5t65 157.5t157 65q74 0 134 -45v45zM270.5 89q55.5 0 94.5 39t39 94.5t-39 94.5t-94.5 39t-94.5 -39t-39 -94.5t39 -94.5t94.5 -39zM371 577q-34 0 -63 -16t-48 -43h-98q23 66 80.5 107t128.5 41h4.5h3.5
v-89h-3.5h-4.5z" />
    <glyph glyph-name="egrave" unicode="&#xe8;" 
d="M492 202h-353q8 -48 45 -79.5t86 -31.5q63 0 103 48l86 -33q-30 -48 -80 -76.5t-109 -28.5q-86 0 -149.5 58t-71.5 143q-1 11 -1 22q0 15 3 34q2 18 7 33q8 26 24 51q30 48 80 76.5t108 28.5q74 0 132.5 -44t80.5 -112q10 -33 10 -67q0 -11 -1 -22zM168 310
q-7 -9 -13 -19h231q-18 30 -48.5 48.5t-67.5 18.5q-62 0 -102 -48zM280 520q-18 27 -47.5 43t-63.5 16h-3.5h-3.5v89h3h4q72 0 129.5 -41.5t80.5 -106.5h-99z" />
    <glyph glyph-name="eacute" unicode="&#xe9;" 
d="M492 202h-353q8 -48 45 -79.5t86 -31.5q63 0 103 48l86 -33q-30 -48 -80 -76.5t-109 -28.5q-86 0 -149.5 58t-71.5 143q-1 11 -1 22q0 15 3 34q2 18 7 33q8 26 24 51q30 48 80 76.5t108 28.5q74 0 132.5 -44t80.5 -112q10 -33 10 -67q0 -11 -1 -22zM168 310
q-7 -9 -13 -19h231q-18 30 -48.5 48.5t-67.5 18.5q-62 0 -102 -48zM371 579q-34 0 -63 -16t-48 -43h-98q23 65 80.5 106.5t128.5 41.5h4.5h3.5v-89h-8z" />
    <glyph glyph-name="igrave" unicode="&#xec;" horiz-adv-x="312" 
d="M265 1h-89v446h89v-446zM55 668q72 0 129 -41.5t81 -106.5h-99q-18 27 -47.5 43t-63.5 16h-4h-3v89h3h4z" />
    <glyph glyph-name="iacute" unicode="&#xed;" horiz-adv-x="312" 
d="M138 1h-89v446h89v-446zM257 668h4.5h3.5v-89h-8q-34 0 -63 -16t-48 -43h-98q23 65 80.5 106.5t128.5 41.5z" />
    <glyph glyph-name="ograve" unicode="&#xf2;" 
d="M270 447q92 0 157.5 -65.5t65.5 -157.5t-65.5 -157.5t-157.5 -65.5t-157 65.5t-65 157.5t65 157.5t157 65.5zM270.5 91q55.5 0 94.5 39t39 94t-39 94.5t-94.5 39.5t-94.5 -39.5t-39 -94.5t39 -94t94.5 -39zM280 520q-18 27 -47.5 43t-63.5 16h-3.5h-3.5v89h3h4
q72 0 129 -41.5t81 -106.5h-99z" />
    <glyph glyph-name="oacute" unicode="&#xf3;" 
d="M270 447q92 0 157.5 -65.5t65.5 -157.5t-65.5 -157.5t-157.5 -65.5t-157 65.5t-65 157.5t65 157.5t157 65.5zM270.5 91q55.5 0 94.5 39t39 94t-39 94.5t-94.5 39.5t-94.5 -39.5t-39 -94.5t39 -94t94.5 -39zM371 579q-34 0 -63 -16t-48 -43h-98q23 65 80.5 106.5
t128.5 41.5h4.5h3.5v-89h-8z" />
    <glyph glyph-name="divide" unicode="&#xf7;" horiz-adv-x="542" 
d="M495 290h-447v89h447v-89zM271.5 425q-18.5 0 -31.5 13t-13 31.5t13 31.5t31.5 13t31.5 -13t13 -31.5t-13 -31.5t-31.5 -13zM271.5 145q-18.5 0 -31.5 13t-13 31.5t13 31.5t31.5 13t31.5 -13t13 -31.5t-13 -31.5t-31.5 -13z" />
    <glyph glyph-name="ugrave" unicode="&#xf9;" horiz-adv-x="496" 
d="M258 521q-18 27 -47.5 43t-63.5 16h-5h-3v89h8q72 0 129 -41.5t81 -106.5h-99zM359 449h89v-247q0 -83 -58.5 -142t-141.5 -59t-141.5 59t-58.5 142v247h89v-247q0 -46 32.5 -78.5t78.5 -32.5t78.5 32.5t32.5 78.5v247z" />
    <glyph glyph-name="uacute" unicode="&#xfa;" horiz-adv-x="496" 
d="M349 580q-34 0 -63.5 -16t-47.5 -43h-99q24 65 81 106.5t129 41.5h4.5h3.5v-90zM359 449h89v-247q0 -83 -58.5 -142t-141.5 -59t-141.5 59t-58.5 142v247h89v-247q0 -46 32.5 -78.5t78.5 -32.5t78.5 32.5t32.5 78.5v247z" />
    <glyph glyph-name="quotedblleft" unicode="&#x201c;" horiz-adv-x="438" 
d="M48 468q0 74 44 132.5t113 79.5v-96q-31 -18 -49.5 -49t-18.5 -67q0 -23 8 -45h-93q-4 22 -4 45zM234 468q0 74 44 132.5t113 79.5v-96q-31 -18 -49.5 -49t-18.5 -67q0 -23 8 -45h-93q-4 22 -4 45z" />
    <glyph glyph-name="quotedblright" unicode="&#x201d;" horiz-adv-x="438" 
d="M386 680q5 -22 5 -45q0 -74 -44 -132.5t-113 -79.5v96q31 17 49.5 48t18.5 68q0 23 -8 45h92zM108 680h92q5 -22 5 -45q0 -74 -44 -132.5t-113 -79.5v96q31 17 49.5 48t18.5 68q0 23 -8 45z" />
    <glyph glyph-name="Euro" unicode="&#x20ac;" 
d="M471 580q-64 0 -118 -30t-87 -81h85v-89h-121q-4 -23 -4 -44.5t4 -44.5h121v-89h-85q33 -51 87 -80.5t118 -29.5q10 0 22 1v-89q-14 -1 -22 -1q-102 0 -184.5 55t-121.5 144h-117v89h92q-3 25 -3 45t3 44h-92v89h117q39 90 121.5 145t184.5 55q8 0 22 -1v-89q-12 1 -22 1
z" />
    </font>
</defs>
</svg>
